<?xml version="1.0" encoding="UTF-8" standalone="no"?>
<!-- Created with Inkscape (http://www.inkscape.org/) -->
<svg
   xmlns:dc="http://purl.org/dc/elements/1.1/"
   xmlns:cc="http://creativecommons.org/ns#"
   xmlns:rdf="http://www.w3.org/1999/02/22-rdf-syntax-ns#"
   xmlns:svg="http://www.w3.org/2000/svg"
   xmlns="http://www.w3.org/2000/svg"
   xmlns:sodipodi="http://sodipodi.sourceforge.net/DTD/sodipodi-0.dtd"
   xmlns:inkscape="http://www.inkscape.org/namespaces/inkscape"
   width="519"
   height="476.11469"
   id="svg7150"
   sodipodi:version="0.32"
   inkscape:version="0.46"
   sodipodi:docname="film_reel.svg"
   inkscape:output_extension="org.inkscape.output.svg.inkscape"
   version="1.0">
  <defs
     id="defs3">
    <inkscape:perspective
       sodipodi:type="inkscape:persp3d"
       inkscape:vp_x="0 : 526.18109 : 1"
       inkscape:vp_y="0 : 1000 : 0"
       inkscape:vp_z="744.09448 : 526.18109 : 1"
       inkscape:persp3d-origin="372.04724 : 350.78739 : 1"
       id="perspective7156" />
    <inkscape:perspective
       id="perspective7542"
       inkscape:persp3d-origin="372.04724 : 350.78739 : 1"
       inkscape:vp_z="744.09448 : 526.18109 : 1"
       inkscape:vp_y="0 : 1000 : 0"
       inkscape:vp_x="0 : 526.18109 : 1"
       sodipodi:type="inkscape:persp3d" />
  </defs>
  <sodipodi:namedview
     inkscape:document-units="mm"
     id="base"
     pagecolor="#ffffff"
     bordercolor="#666666"
     borderopacity="1.0"
     inkscape:pageopacity="0.0"
     inkscape:pageshadow="2"
     inkscape:zoom="1"
     inkscape:cx="134.0931"
     inkscape:cy="213.47116"
     inkscape:current-layer="layer1"
     showgrid="false"
     showguides="true"
     inkscape:guide-bbox="true"
     inkscape:window-width="1272"
     inkscape:window-height="944"
     inkscape:window-x="0"
     inkscape:window-y="0">
    <sodipodi:guide
       orientation="0,1"
       position="82,737.5"
       id="guide7659" />
  </sodipodi:namedview>
  <metadata
     id="metadata4">
    <rdf:RDF>
      <cc:Work
         rdf:about="">
        <dc:format>image/svg+xml</dc:format>
        <dc:type
           rdf:resource="http://purl.org/dc/dcmitype/StillImage" />
      </cc:Work>
    </rdf:RDF>
  </metadata>
  <g
     inkscape:label="Layer 1"
     inkscape:groupmode="layer"
     id="layer1"
     transform="translate(-42,-121.26033)">
    <path
       id="path7732"
       d="M 42,121.26033 L 42,597.375 L 561,597.375 L 561,121.26033 L 335.35972,121.26033 C 328.41726,133.78123 315.07155,142.26539 299.74958,142.26539 C 284.4276,142.26539 271.0819,133.78123 264.13944,121.26033 L 42,121.26033 z M 70.006745,146.64144 L 86.63575,146.64144 C 90.029818,146.64144 92.762226,149.37385 92.762226,152.76792 L 92.762226,181.64987 C 92.762226,185.04394 90.029818,187.77635 86.63575,187.77635 L 70.006745,187.77635 C 66.612678,187.77635 63.88027,185.04394 63.88027,181.64987 L 63.88027,152.76792 C 63.88027,149.37385 66.612678,146.64144 70.006745,146.64144 z M 135.15525,146.64144 L 151.78425,146.64144 C 155.17832,146.64144 157.91073,149.37385 157.91073,152.76792 L 157.91073,181.64987 C 157.91073,185.04394 155.17832,187.77635 151.78425,187.77635 L 135.15525,187.77635 C 131.76118,187.77635 129.02877,185.04394 129.02877,181.64987 L 129.02877,152.76792 C 129.02877,149.37385 131.76118,146.64144 135.15525,146.64144 z M 200.2764,146.64144 L 216.90541,146.64144 C 220.29947,146.64144 223.03188,149.37385 223.03188,152.76792 L 223.03188,181.64987 C 223.03188,185.04394 220.29947,187.77635 216.90541,187.77635 L 200.2764,187.77635 C 196.88233,187.77635 194.14993,185.04394 194.14993,181.64987 L 194.14993,152.76792 C 194.14993,149.37385 196.88233,146.64144 200.2764,146.64144 z M 265.42491,146.64144 L 282.05391,146.64144 C 285.44798,146.64144 288.18039,149.37385 288.18039,152.76792 L 288.18039,181.64987 C 288.18039,185.04394 285.44798,187.77635 282.05391,187.77635 L 265.42491,187.77635 C 262.03084,187.77635 259.29843,185.04394 259.29843,181.64987 L 259.29843,152.76792 C 259.29843,149.37385 262.03084,146.64144 265.42491,146.64144 z M 330.57341,146.64144 L 347.20241,146.64144 C 350.59648,146.64144 353.32889,149.37385 353.32889,152.76792 L 353.32889,181.64987 C 353.32889,185.04394 350.59648,187.77635 347.20241,187.77635 L 330.57341,187.77635 C 327.17934,187.77635 324.44693,185.04394 324.44693,181.64987 L 324.44693,152.76792 C 324.44693,149.37385 327.17934,146.64144 330.57341,146.64144 z M 395.72191,146.64144 L 412.35092,146.64144 C 415.74498,146.64144 418.47739,149.37385 418.47739,152.76792 L 418.47739,181.64987 C 418.47739,185.04394 415.74498,187.77635 412.35092,187.77635 L 395.72191,187.77635 C 392.32784,187.77635 389.59544,185.04394 389.59544,181.64987 L 389.59544,152.76792 C 389.59544,149.37385 392.32784,146.64144 395.72191,146.64144 z M 460.84306,146.64144 L 477.47207,146.64144 C 480.86614,146.64144 483.59855,149.37385 483.59855,152.76792 L 483.59855,181.64987 C 483.59855,185.04394 480.86614,187.77635 477.47207,187.77635 L 460.84306,187.77635 C 457.449,187.77635 454.71659,185.04394 454.71659,181.64987 L 454.71659,152.76792 C 454.71659,149.37385 457.449,146.64144 460.84306,146.64144 z M 525.99157,146.64144 L 542.62057,146.64144 C 546.01464,146.64144 548.74705,149.37385 548.74705,152.76792 L 548.74705,181.64987 C 548.74705,185.04394 546.01464,187.77635 542.62057,187.77635 L 525.99157,187.77635 C 522.5975,187.77635 519.86509,185.04394 519.86509,181.64987 L 519.86509,152.76792 C 519.86509,149.37385 522.5975,146.64144 525.99157,146.64144 z M 65.630691,195.65325 L 537.36931,195.65325 C 544.15744,195.65325 549.62226,201.11806 549.62226,207.9062 L 549.62226,508.1035 C 549.62226,514.89163 544.15744,520.35645 537.36931,520.35645 L 65.630691,520.35645 C 58.842556,520.35645 53.37774,514.89163 53.37774,508.1035 L 53.37774,207.9062 C 53.37774,201.11806 58.842556,195.65325 65.630691,195.65325 z M 69.131535,529.98377 L 85.76054,529.98377 C 89.154607,529.98377 91.887015,532.71618 91.887015,536.11024 L 91.887015,564.9922 C 91.887015,568.38627 89.154607,571.11868 85.76054,571.11868 L 69.131535,571.11868 C 65.737467,571.11868 63.005059,568.38627 63.005059,564.9922 L 63.005059,536.11024 C 63.005059,532.71618 65.737467,529.98377 69.131535,529.98377 z M 134.28004,529.98377 L 150.90904,529.98377 C 154.30311,529.98377 157.03552,532.71618 157.03552,536.11024 L 157.03552,564.9922 C 157.03552,568.38627 154.30311,571.11868 150.90904,571.11868 L 134.28004,571.11868 C 130.88597,571.11868 128.15356,568.38627 128.15356,564.9922 L 128.15356,536.11024 C 128.15356,532.71618 130.88597,529.98377 134.28004,529.98377 z M 199.40119,529.98377 L 216.0302,529.98377 C 219.42426,529.98377 222.15667,532.71618 222.15667,536.11024 L 222.15667,564.9922 C 222.15667,568.38627 219.42426,571.11868 216.0302,571.11868 L 199.40119,571.11868 C 196.00712,571.11868 193.27472,568.38627 193.27472,564.9922 L 193.27472,536.11024 C 193.27472,532.71618 196.00712,529.98377 199.40119,529.98377 z M 264.54969,529.98377 L 281.1787,529.98377 C 284.57277,529.98377 287.30517,532.71618 287.30517,536.11024 L 287.30517,564.9922 C 287.30517,568.38627 284.57277,571.11868 281.1787,571.11868 L 264.54969,571.11868 C 261.15563,571.11868 258.42322,568.38627 258.42322,564.9922 L 258.42322,536.11024 C 258.42322,532.71618 261.15563,529.98377 264.54969,529.98377 z M 329.6982,529.98377 L 346.3272,529.98377 C 349.72127,529.98377 352.45368,532.71618 352.45368,536.11024 L 352.45368,564.9922 C 352.45368,568.38627 349.72127,571.11868 346.3272,571.11868 L 329.6982,571.11868 C 326.30413,571.11868 323.57172,568.38627 323.57172,564.9922 L 323.57172,536.11024 C 323.57172,532.71618 326.30413,529.98377 329.6982,529.98377 z M 394.8467,529.98377 L 411.47571,529.98377 C 414.86977,529.98377 417.60218,532.71618 417.60218,536.11024 L 417.60218,564.9922 C 417.60218,568.38627 414.86977,571.11868 411.47571,571.11868 L 394.8467,571.11868 C 391.45263,571.11868 388.72023,568.38627 388.72023,564.9922 L 388.72023,536.11024 C 388.72023,532.71618 391.45263,529.98377 394.8467,529.98377 z M 459.96785,529.98377 L 476.59686,529.98377 C 479.99093,529.98377 482.72333,532.71618 482.72333,536.11024 L 482.72333,564.9922 C 482.72333,568.38627 479.99093,571.11868 476.59686,571.11868 L 459.96785,571.11868 C 456.57379,571.11868 453.84138,568.38627 453.84138,564.9922 L 453.84138,536.11024 C 453.84138,532.71618 456.57379,529.98377 459.96785,529.98377 z M 525.11636,529.98377 L 541.74536,529.98377 C 545.13943,529.98377 547.87184,532.71618 547.87184,536.11024 L 547.87184,564.9922 C 547.87184,568.38627 545.13943,571.11868 541.74536,571.11868 L 525.11636,571.11868 C 521.72229,571.11868 518.98988,568.38627 518.98988,564.9922 L 518.98988,536.11024 C 518.98988,532.71618 521.72229,529.98377 525.11636,529.98377 z"
       style="opacity:1;fill:#575757;fill-opacity:1;fill-rule:nonzero;stroke:none;stroke-width:7.08661413;stroke-linecap:round;stroke-linejoin:round;stroke-miterlimit:4;stroke-dasharray:none;stroke-dashoffset:0;stroke-opacity:1" />
    <path
       style="opacity:1;fill:#2c2c2c;fill-opacity:1;fill-rule:nonzero;stroke:none;stroke-width:7.08661413;stroke-linecap:round;stroke-linejoin:round;stroke-miterlimit:4;stroke-dasharray:none;stroke-dashoffset:0;stroke-opacity:1"
       d="M 210.72423,121.26033 L 210.72423,121.31503 L 210.66953,121.31503 L 210.66953,133.37653 L 205.11741,133.37653 L 205.11741,121.31503 L 198.90888,121.31503 L 198.90888,146.80554 C 199.34989,146.70535 199.80422,146.64144 200.2764,146.64144 L 216.90541,146.64144 C 219.50399,146.64144 221.70074,148.25116 222.59428,150.52519 L 222.81308,150.52519 L 228.6934,150.52519 L 228.6934,121.26033 L 222.48488,121.26033 L 222.48488,132.93892 L 216.93276,132.93892 L 216.93276,121.26033 L 210.72423,121.26033 z M 338.94261,121.26033 L 338.94261,146.64144 L 347.20241,146.64144 C 349.82294,146.64144 352.04005,148.27527 352.91863,150.57989 L 356.91178,150.57989 L 356.91178,121.26033 L 350.70326,121.26033 L 350.70326,132.99362 L 345.15114,132.99362 L 345.15114,121.26033 L 338.94261,121.26033 z M 42.273503,121.31503 L 42.273503,133.32183 L 48.45468,133.32183 L 48.45468,121.31503 L 42.273503,121.31503 z M 75.066558,121.31503 L 75.066558,146.64144 L 86.63575,146.64144 C 89.402599,146.64144 91.723107,148.45295 92.488723,150.9628 L 93.035729,150.9628 L 93.035729,121.31503 L 86.827203,121.31503 L 86.827203,133.37653 L 81.275084,133.37653 L 81.275084,121.31503 L 75.066558,121.31503 z M 509.63607,121.31503 L 509.63607,133.32183 L 515.81724,133.32183 L 515.81724,121.31503 L 509.63607,121.31503 z M 542.42912,121.31503 L 542.42912,146.64144 L 542.62057,146.64144 C 545.38742,146.64144 547.70793,148.45295 548.47355,150.9628 L 548.63765,150.9628 L 554.51797,150.9628 L 560.39829,150.9628 L 560.39829,121.31503 L 554.18977,121.31503 L 554.18977,133.37653 L 548.63765,133.37653 L 548.63765,121.31503 L 542.42912,121.31503 z M 54.96406,121.61588 L 54.96406,133.37653 L 48.755533,133.37653 L 48.755533,150.9628 L 54.96406,150.9628 L 54.96406,133.65003 L 61.145236,133.65003 L 61.145236,151.291 L 64.071722,151.291 C 64.512962,149.50048 65.727273,148.02278 67.353763,147.24315 L 67.353763,121.61588 L 61.145236,121.61588 L 54.96406,121.61588 z M 522.32662,121.61588 L 522.32662,133.37653 L 516.1181,133.37653 L 516.1181,150.9628 L 520.1386,150.9628 C 520.52344,149.70118 521.29514,148.61327 522.32662,147.84486 L 522.32662,133.65003 L 528.5078,133.65003 L 528.5078,146.64144 L 534.71633,146.64144 L 534.71633,121.61588 L 528.5078,121.61588 L 522.32662,121.61588 z M 255.46938,121.64323 L 255.46938,133.67738 L 261.67791,133.67738 L 261.67791,121.64323 L 255.46938,121.64323 z M 429.58163,124.35092 C 426.26859,124.63168 424.53011,128.26117 424.68592,131.3526 C 424.34507,134.78222 425.79866,139.50264 430.07394,139.03805 C 434.64607,138.74766 435.64288,131.32201 431.55085,129.60218 C 430.12901,128.72 426.27518,131.02625 427.94061,127.93381 C 429.01383,125.13403 433.92274,128.65291 433.19187,124.95262 C 432.27324,124.54428 431.27049,124.3315 430.26539,124.35092 C 430.0305,124.33884 429.8025,124.3322 429.58163,124.35092 z M 439.0722,124.43297 C 438.18751,124.46827 437.29941,124.7135 436.52862,125.17143 C 435.50119,130.01056 439.78358,125.12179 441.45168,128.01586 C 442.76898,130.06748 442.68699,132.9176 441.77988,135.0996 C 440.83137,138.52783 436.43358,134.22744 436.44656,137.45173 C 437.2097,140.1011 441.06091,139.22133 442.81919,138.10814 C 445.51993,135.95636 445.73691,131.90058 444.92517,128.78167 C 444.48513,126.00784 441.72626,124.32704 439.0722,124.43297 z M 155.91415,126.56629 C 154.90187,126.59672 153.89789,126.86354 153.12442,127.52356 C 151.18859,129.07404 150.96846,132.60106 153.20647,133.97824 C 153.01046,134.76142 151.83695,136.17014 152.08511,137.45173 C 151.97674,139.49105 153.70774,141.31921 155.7227,141.39018 C 157.41287,141.77632 159.25111,140.84472 159.98935,139.2842 C 161.00048,137.59788 160.32529,134.93237 158.29363,134.41584 C 159.27171,134.20157 160.04411,133.43077 160.48166,132.55602 C 161.73884,130.28665 160.04474,127.41847 157.71928,126.7304 C 157.15101,126.597 156.52152,126.54804 155.91415,126.56629 z M 121.42538,126.62099 L 121.42538,130.23124 L 104.13997,130.23124 L 104.13997,135.92011 L 121.42538,135.92011 L 121.42538,139.53035 L 127.00485,136.30301 L 132.58432,133.07567 L 127.00485,129.84833 L 121.42538,126.62099 z M 169.45257,126.64835 C 168.99349,126.64529 168.52879,126.7354 168.11241,126.92185 C 165.98123,126.46929 163.5822,127.70408 162.86114,129.79363 C 162.48467,130.96732 162.50435,132.60921 163.68165,133.32183 C 164.92811,133.69826 164.89442,135.15862 163.9278,135.83806 C 162.56455,136.93189 163.14467,139.12485 164.42011,140.05001 C 166.81647,141.66088 169.79967,140.8839 172.48846,141.06197 C 172.52706,138.91376 172.46801,136.75548 172.46111,134.60729 C 172.23415,132.70538 173.05223,130.79361 172.51581,128.91842 C 172.22581,127.49313 170.82984,126.65751 169.45257,126.64835 z M 156.05091,128.89107 C 156.82321,128.87252 157.60276,129.25808 157.93808,130.06714 C 158.79844,131.36062 157.89714,133.43495 156.24236,133.23978 C 154.66835,133.41723 153.7242,131.55511 154.30048,130.23124 C 154.52681,129.34041 155.2786,128.90963 156.05091,128.89107 z M 167.5107,129.02782 C 169.58031,128.97883 170.65004,131.66305 169.80813,133.34918 C 168.73015,133.75413 167.42424,133.62452 166.49874,132.91157 C 164.8263,131.86403 165.61184,129.17501 167.5107,129.02782 z M 327.12727,131.65346 C 326.82543,131.92858 326.50738,132.18056 326.19735,132.44662 L 326.19735,148.44656 C 327.30679,147.32293 328.86229,146.64144 330.57341,146.64144 L 332.40588,146.64144 L 332.40588,131.65346 L 327.12727,131.65346 z M 429.55428,131.73551 C 431.7514,131.89558 432.10393,135.40558 430.51154,136.54917 C 427.36841,138.16629 426.36868,131.98953 429.55428,131.73551 z M 236.05064,132.96627 L 236.05064,150.57989 L 242.25917,150.57989 L 242.25917,132.96627 L 236.05064,132.96627 z M 248.93265,132.96627 L 248.93265,150.57989 L 255.14118,150.57989 L 255.14118,132.96627 L 248.93265,132.96627 z M 261.81466,132.96627 L 261.81466,147.81751 C 262.82697,147.07832 264.06995,146.64144 265.42491,146.64144 L 268.02319,146.64144 L 268.02319,132.96627 L 261.81466,132.96627 z M 274.69667,133.59533 L 274.69667,146.64144 L 280.9052,146.64144 L 280.9052,137.61583 C 278.70848,136.46354 276.63431,135.11445 274.69667,133.59533 z M 168.11241,135.45515 C 169.68888,135.47339 170.76846,137.50219 169.80813,138.81925 C 168.89414,139.06553 167.86556,139.01346 167.01839,138.57309 C 165.21425,137.92541 166.09163,135.46423 167.7842,135.4825 C 167.89328,135.46504 168.00731,135.45394 168.11241,135.45515 z M 156.18766,135.5372 C 157.0967,135.40844 158.10038,136.24431 157.99278,137.26028 C 158.15696,138.61774 156.56979,139.33199 155.4492,138.92865 C 154.02808,138.5686 154.38917,136.69739 155.36715,136.02951 C 155.60261,135.74259 155.88464,135.58013 156.18766,135.5372 z M 319.52387,137.12352 C 317.54642,138.22752 315.47815,139.17472 313.31535,139.94061 L 313.31535,150.14228 L 319.52387,150.14228 L 319.52387,137.12352 z M 287.57868,140.40556 L 287.57868,150.14228 L 293.75985,150.14228 L 293.75985,141.82778 C 291.6443,141.51479 289.5751,141.03149 287.57868,140.40556 z M 306.64186,141.69103 C 304.63193,142.03416 302.55954,142.22908 300.46069,142.26539 L 300.46069,150.14228 L 306.64186,150.14228 L 306.64186,141.69103 z"
       id="rect7548" />
    <path
       style="opacity:1;fill:#2c2c2c;fill-opacity:1;fill-rule:nonzero;stroke:none;stroke-width:7.08661413;stroke-linecap:round;stroke-linejoin:round;stroke-miterlimit:4;stroke-dasharray:none;stroke-dashoffset:0;stroke-opacity:1"
       d="M 42,155.39355 L 42,174.64819 L 63.88027,174.64819 L 63.88027,155.39355 L 42,155.39355 z M 92.762226,155.39355 L 92.762226,174.64819 L 129.02877,174.64819 L 129.02877,155.39355 L 92.762226,155.39355 z M 157.91073,155.39355 L 157.91073,174.64819 L 194.14993,174.64819 L 194.14993,155.39355 L 157.91073,155.39355 z M 223.03188,155.39355 L 223.03188,174.64819 L 259.29843,174.64819 L 259.29843,155.39355 L 223.03188,155.39355 z M 288.18039,155.39355 L 288.18039,174.64819 L 324.44693,174.64819 L 324.44693,155.39355 L 288.18039,155.39355 z M 353.32889,155.39355 L 353.32889,174.64819 L 389.59544,174.64819 L 389.59544,155.39355 L 353.32889,155.39355 z M 418.47739,155.39355 L 418.47739,174.64819 L 454.71659,174.64819 L 454.71659,155.39355 L 418.47739,155.39355 z M 483.59855,155.39355 L 483.59855,174.64819 L 519.86509,174.64819 L 519.86509,155.39355 L 483.59855,155.39355 z M 548.74705,155.39355 L 548.74705,174.64819 L 561,174.64819 L 561,155.39355 L 548.74705,155.39355 z"
       id="path7579" />
    <path
       style="opacity:1;fill:#2c2c2c;fill-opacity:1;fill-rule:nonzero;stroke:none;stroke-width:7.08661413;stroke-linecap:round;stroke-linejoin:round;stroke-miterlimit:4;stroke-dasharray:none;stroke-dashoffset:0;stroke-opacity:1"
       d="M 42,538.59913 L 42,558.40077 L 63.005059,558.40077 L 63.005059,538.59913 L 42,538.59913 z M 91.887015,538.59913 L 91.887015,558.40077 L 128.15356,558.40077 L 128.15356,538.59913 L 91.887015,538.59913 z M 157.03552,538.59913 L 157.03552,558.40077 L 193.27472,558.40077 L 193.27472,538.59913 L 157.03552,538.59913 z M 222.15667,538.59913 L 222.15667,558.40077 L 258.42322,558.40077 L 258.42322,538.59913 L 222.15667,538.59913 z M 287.30517,538.59913 L 287.30517,558.40077 L 323.57172,558.40077 L 323.57172,538.59913 L 287.30517,538.59913 z M 352.45368,538.59913 L 352.45368,558.40077 L 388.72023,558.40077 L 388.72023,538.59913 L 352.45368,538.59913 z M 417.60218,538.59913 L 417.60218,558.40077 L 453.84138,558.40077 L 453.84138,538.59913 L 417.60218,538.59913 z M 482.72333,538.59913 L 482.72333,558.40077 L 518.98988,558.40077 L 518.98988,538.59913 L 482.72333,538.59913 z M 547.87184,538.59913 L 547.87184,558.40077 L 561,558.40077 L 561,538.59913 L 547.87184,538.59913 z"
       id="rect7737" />
    <rect
       style="opacity:1;fill:#2c2c2c;fill-opacity:1;fill-rule:nonzero;stroke:none;stroke-width:7.08661413;stroke-linecap:round;stroke-linejoin:round;stroke-miterlimit:4;stroke-dasharray:none;stroke-dashoffset:0;stroke-opacity:1"
       id="rect7739"
       width="0"
       height="2.8284271"
       x="354.2605"
       y="773.76208" />
    <path
       style="opacity:1;fill:#2c2c2c;fill-opacity:1;fill-rule:nonzero;stroke:none;stroke-width:7.08661413;stroke-linecap:round;stroke-linejoin:round;stroke-miterlimit:4;stroke-dasharray:none;stroke-dashoffset:0;stroke-opacity:1"
       d="M 46.294003,575.11183 L 46.294003,597.375 L 58.656355,597.375 L 58.656355,575.11183 L 46.294003,575.11183 z M 64.235824,575.11183 L 64.235824,597.375 L 72.276823,597.375 L 72.276823,575.11183 L 64.235824,575.11183 z M 184.3038,575.11183 L 184.3038,597.375 L 196.66616,597.375 L 196.66616,575.11183 L 184.3038,575.11183 z M 202.24563,575.11183 L 202.24563,597.375 L 210.28663,597.375 L 210.28663,575.11183 L 202.24563,575.11183 z M 214.88148,575.11183 L 214.88148,597.375 L 222.92248,597.375 L 222.92248,575.11183 L 214.88148,575.11183 z M 381.17153,575.11183 L 381.17153,597.375 L 389.21253,597.375 L 389.21253,575.11183 L 381.17153,575.11183 z M 393.42448,575.11183 L 393.42448,597.375 L 401.46548,597.375 L 401.46548,575.11183 L 393.42448,575.11183 z M 405.23983,575.11183 L 405.23983,597.375 L 417.60218,597.375 L 417.60218,575.11183 L 405.23983,575.11183 z M 435.4346,575.11183 L 435.4346,597.375 L 443.4756,597.375 L 443.4756,575.11183 L 435.4346,575.11183 z M 447.68755,575.11183 L 447.68755,597.375 L 455.72855,597.375 L 455.72855,575.11183 L 447.68755,575.11183 z M 459.9405,575.11183 L 459.9405,597.375 L 467.9815,597.375 L 467.9815,575.11183 L 459.9405,575.11183 z M 528.20695,575.11183 L 528.20695,597.375 L 536.24794,597.375 L 536.24794,575.11183 L 528.20695,575.11183 z M 541.38981,575.11183 L 541.38981,597.375 L 553.75216,597.375 L 553.75216,575.11183 L 541.38981,575.11183 z"
       id="rect7744" />
    <path
       style="font-size:40px;font-style:normal;font-variant:normal;font-weight:bold;font-stretch:normal;text-align:start;line-height:125%;writing-mode:lr-tb;text-anchor:start;fill:#000000;fill-opacity:1;stroke:none;stroke-width:1px;stroke-linecap:butt;stroke-linejoin:miter;stroke-opacity:1;font-family:Bitstream Vera Sans Mono;-inkscape-font-specification:Bitstream Vera Sans Mono Bold"
       d="M 148.52079,583.09604 C 149.95257,583.21485 150.94839,581.48225 150.38789,580.23248 C 149.89317,578.84575 147.74044,578.50009 146.91994,579.77322 C 146.12075,580.85579 146.56061,582.77 147.9893,583.04181 C 148.16291,583.08376 148.34224,583.10238 148.52079,583.09601 M 150.48492,584.21708 C 152.26593,584.68746 153.03007,586.91506 152.33921,588.52331 C 151.81052,589.90441 150.34928,590.74408 148.90427,590.75063 C 147.19311,590.92688 145.17307,590.14106 144.64592,588.36667 C 144.12798,586.89743 144.67387,584.93602 146.21637,584.33901 C 146.44387,583.8686 145.16222,583.8958 145.03419,583.31466 C 143.38936,581.51132 144.03727,578.11671 146.36613,577.22341 C 148.22594,576.59824 150.60611,576.65473 152.01138,578.19497 C 153.37561,579.81832 153.21393,582.68867 151.33175,583.85511 C 151.06761,584.01344 150.78165,584.13495 150.48492,584.21708 z M 150.20689,586.93459 C 150.38424,585.55483 148.48978,584.65398 147.4604,585.52402 C 146.42096,586.29551 146.66262,588.27448 148.00031,588.5676 C 149.03415,588.91034 150.33748,588.08872 150.20689,586.93459 z M 139.31893,583.20362 C 139.31893,581.88224 139.31893,580.56085 139.31893,579.23947 C 138.13384,579.33759 136.76179,578.943 135.74781,579.74271 C 135.04204,580.57234 135.11057,581.97957 135.8683,582.74494 C 136.86262,583.49335 138.1751,583.10573 139.31893,583.20362 z M 139.31893,588.42337 C 139.10409,587.43969 139.69409,586.34041 139.10453,585.44161 C 138.18345,585.24573 136.9253,585.11441 136.08261,585.74739 C 135.27058,586.55709 135.739,588.33369 136.97562,588.3785 C 137.75328,588.48246 138.53823,588.38929 139.31893,588.42337 z M 141.875,590.53101 C 139.56279,590.41209 137.16829,590.85132 134.92671,590.1049 C 133.73048,589.6121 132.95248,588.33279 133.06041,587.04373 C 133.04861,585.80707 133.89846,584.4754 135.21206,584.37048 C 135.52839,584.07836 134.2882,584.18615 134.08314,583.83052 C 132.9343,583.14244 132.453,581.73428 132.5928,580.44932 C 132.64543,579.14811 133.44789,577.78462 134.79123,577.49667 C 136.92368,576.80375 139.18378,577.30323 141.37076,577.07963 C 142.46847,577.59433 141.5857,579.06902 141.875,580.00165 C 141.875,583.51143 141.875,587.02123 141.875,590.53101 z"
       id="flowRoot7771" />
    <path
       style="font-size:40px;font-style:normal;font-variant:normal;font-weight:bold;font-stretch:normal;text-align:start;line-height:125%;writing-mode:lr-tb;text-anchor:start;fill:#000000;fill-opacity:1;stroke:none;stroke-width:1px;stroke-linecap:butt;stroke-linejoin:miter;stroke-opacity:1;font-family:Bitstream Vera Sans Mono;-inkscape-font-specification:Bitstream Vera Sans Mono Bold"
       d="M 341.8623,589.63785 C 338.91023,590.1801 339.64191,586.05725 337.7735,584.99339 C 335.04491,584.3278 336.20196,589.8561 333.5797,588.76743 C 331.86483,587.05873 333.40314,584.7593 333.37098,582.76533 C 333.36126,580.87334 332.78823,578.91 333.47583,577.07182 C 335.61501,575.45419 337.04786,579.20842 335.78674,580.6348 C 336.53373,583.35976 340.7755,580.95601 338.72176,578.94372 C 338.56709,576.00903 343.2101,576.87789 341.948,579.60786 C 341.83659,582.43249 341.60868,585.25968 341.86955,588.08216 C 341.87578,588.60071 341.87526,589.11941 341.8623,589.63785 z M 322.19403,576.24767 C 324.97432,576.24766 327.7546,576.24766 330.53488,576.24766 C 330.53488,580.71106 330.53488,585.17447 330.53488,589.63787 C 327.7546,589.63818 324.97431,589.63787 322.19403,589.63787 C 322.06355,586.69044 326.01306,587.75877 327.37309,586.32034 C 328.339,583.22706 322.65149,585.28569 323.42383,582.88328 C 324.52397,581.17396 328.44385,583.11436 327.603,579.98868 C 326.90996,577.59103 324.42659,578.74278 322.87707,578.25841 C 322.14947,577.90708 321.59317,576.96767 322.19403,576.24767 z M 319.30613,578.5795 C 316.92126,577.91674 315.6767,580.81084 315.69205,582.75356 C 315.31785,585.13061 318.14899,586.22568 318.1833,588.34599 C 317.74107,591.14351 313.60328,589.93816 313.66385,587.49016 C 313.27723,584.80095 315.03451,581.75346 313.18089,579.33215 C 310.47993,578.47169 312.39139,574.76477 314.74672,576.09988 C 316.42101,576.02613 319.72855,576.06846 319.30613,578.5795 z M 305.53025,582.92932 C 304.53934,585.02505 303.65592,580.68938 305.20226,582.23341 C 305.33549,582.43843 305.56272,582.65457 305.53025,582.92932 z M 304.41814,587.63785 C 306.65139,586.24189 305.94704,583.26485 306.67732,581.10481 C 306.80288,578.75201 302.34601,578.61922 302.51969,581.05646 C 302.90557,583.2696 301.99668,586.27656 304.41814,587.63785 z M 308.83968,582.92932 C 309.20895,585.7085 307.96173,589.29086 304.91724,589.90317 C 302.28496,590.15981 299.82348,587.59572 300.13197,584.98108 C 299.57976,581.95573 299.97011,578.25596 302.64222,576.31169 C 305.32253,575.0106 308.75499,577.38513 308.64976,580.32706 C 308.79291,581.18659 308.82772,582.05949 308.83968,582.92932 z M 294.48086,582.92932 C 293.48997,585.02504 292.60651,580.6894 294.15286,582.23342 C 294.28611,582.43842 294.51334,582.65458 294.48086,582.92932 z M 293.36875,587.63785 C 295.60199,586.24188 294.89763,583.26485 295.6279,581.10482 C 295.75348,578.75203 291.29661,578.61922 291.4703,581.05646 C 291.85618,583.2696 290.94729,586.27654 293.36875,587.63785 z M 297.79029,582.92932 C 298.15956,585.7085 296.91232,589.29086 293.86784,589.90317 C 291.23555,590.15981 288.77408,587.59571 289.08257,584.98107 C 288.53031,581.95571 288.92071,578.25593 291.59283,576.31167 C 294.27315,575.01058 297.70557,577.38513 297.60038,580.32705 C 297.74355,581.18658 297.77839,582.05948 297.79029,582.92932 z"
       id="flowRoot7779" />
    <path
       style="font-size:40px;font-style:normal;font-variant:normal;font-weight:bold;font-stretch:normal;text-align:start;line-height:125%;writing-mode:lr-tb;text-anchor:start;fill:#000000;fill-opacity:1;stroke:none;stroke-width:1px;stroke-linecap:butt;stroke-linejoin:miter;stroke-opacity:1;font-family:Bitstream Vera Sans Mono;-inkscape-font-specification:Bitstream Vera Sans Mono Bold"
       d="M 109.39925,567.77312 C 111.11519,566.82429 113.48189,566.82113 114.97978,568.19021 C 116.26202,569.495 116.43489,571.52095 116.01371,573.22286 C 115.62355,574.69048 114.32775,575.89629 112.79539,576.0436 C 111.74491,576.20663 110.65476,576.02365 109.69078,575.58516 C 109.16726,575.11074 109.30339,573.92678 109.61043,573.60189 C 110.60888,574.25544 112.02239,574.60503 113.06323,573.84543 C 113.9402,573.14562 114.04069,571.8889 113.88602,570.854 C 113.75484,569.97366 113.12508,569.13793 112.2079,568.99543 C 111.46521,568.84008 110.67759,569.00108 110.01854,569.36428 C 109.36595,570.10969 109.28394,569.03626 109.3992,568.53067 C 109.40158,568.27816 109.4038,568.02562 109.39925,567.77312 z M 100.01007,567.77312 C 101.72601,566.82429 104.0927,566.82113 105.5906,568.19021 C 106.87284,569.495 107.04571,571.52095 106.62452,573.22286 C 106.23436,574.69048 104.93856,575.89629 103.40621,576.0436 C 102.35573,576.20663 101.26558,576.02365 100.3016,575.58516 C 99.778082,575.11074 99.914212,573.92678 100.22124,573.60189 C 101.21969,574.25544 102.6332,574.60503 103.67405,573.84543 C 104.55102,573.14562 104.65151,571.8889 104.49683,570.854 C 104.36566,569.97366 103.7359,569.13793 102.81871,568.99543 C 102.07602,568.84008 101.28841,569.00108 100.62936,569.36428 C 99.976772,570.10969 99.894756,569.03626 100.01001,568.53067 C 100.01239,568.27816 100.01462,568.02562 100.01007,567.77312 z"
       id="flowRoot7815" />
    <path
       id="path7830"
       d="M 247.68255,567.77312 C 249.3985,566.82429 251.76519,566.82113 253.26309,568.19021 C 254.54533,569.495 254.7182,571.52095 254.29701,573.22286 C 253.90686,574.69048 252.61106,575.89629 251.07869,576.0436 C 250.02821,576.20663 248.93807,576.02365 247.97409,575.58516 C 247.45057,575.11074 247.58671,573.92678 247.89373,573.60189 C 248.89218,574.25544 250.3057,574.60503 251.34654,573.84543 C 252.22351,573.14562 252.324,571.8889 252.16932,570.854 C 252.03814,569.97366 251.40839,569.13793 250.4912,568.99543 C 249.74851,568.84008 248.96089,569.00108 248.30184,569.36428 C 247.64926,570.10969 247.56724,569.03626 247.6825,568.53067 C 247.68489,568.27816 247.6871,568.02562 247.68255,567.77312 z M 238.29337,567.77312 C 240.00932,566.82429 242.37601,566.82113 243.87391,568.19021 C 245.15614,569.495 245.32902,571.52095 244.90783,573.22286 C 244.51767,574.69048 243.22187,575.89629 241.68951,576.0436 C 240.63903,576.20663 239.54889,576.02365 238.5849,575.58516 C 238.06139,575.11074 238.19752,573.92678 238.50455,573.60189 C 239.503,574.25544 240.91651,574.60503 241.95735,573.84543 C 242.83432,573.14562 242.93481,571.8889 242.78014,570.854 C 242.64896,569.97366 242.0192,569.13793 241.10202,568.99543 C 240.35932,568.84008 239.57171,569.00108 238.91266,569.36428 C 238.26008,570.10969 238.17806,569.03626 238.29332,568.53067 C 238.2957,568.27816 238.29792,568.02562 238.29337,567.77312 z"
       style="font-size:40px;font-style:normal;font-variant:normal;font-weight:bold;font-stretch:normal;text-align:start;line-height:125%;writing-mode:lr-tb;text-anchor:start;fill:#000000;fill-opacity:1;stroke:none;stroke-width:1px;stroke-linecap:butt;stroke-linejoin:miter;stroke-opacity:1;font-family:Bitstream Vera Sans Mono;-inkscape-font-specification:Bitstream Vera Sans Mono Bold" />
  </g>
</svg>
